<?xml version="1.0" standalone="no"?>
<!DOCTYPE svg PUBLIC "-//W3C//DTD SVG 1.1//EN" "http://www.w3.org/Graphics/SVG/1.1/DTD/svg11.dtd" >
<svg xmlns="http://www.w3.org/2000/svg" xmlns:xlink="http://www.w3.org/1999/xlink" version="1.1">
<metadata></metadata>
<defs>
<font id="mooregular" horiz-adv-x="1587" >
<font-face units-per-em="2048" ascent="1536" descent="-512" />
<missing-glyph horiz-adv-x="500" />
<glyph horiz-adv-x="0" />
<glyph horiz-adv-x="682" />
<glyph unicode="A" horiz-adv-x="1536" d="M-74 0l627 1769h295l627 -1769h-332l-107 295h-671l-107 -295h-332z" />
<glyph unicode="B" horiz-adv-x="1433" d="M115 0v1769h663q145 -10 258 -65q49 -25 95.5 -61.5t82 -91t58 -128t22.5 -170.5q0 -84 -16 -146.5t-37 -102.5q-23 -49 -53 -84q78 -61 113.5 -133t52.5 -132q14 -62 14 -124v-15q0 -96 -22.5 -170t-58.5 -129t-82 -92t-95 -62q-113 -57 -258 -63h-737z" />
<glyph unicode="C" horiz-adv-x="1894" d="M57 885q0 190 73 358t198 293t292.5 197.5t358.5 72.5q127 0 230.5 -26.5t185.5 -71.5t145.5 -101.5t110.5 -113.5q111 -139 164 -313h-320q-43 92 -113 166q-59 61 -159.5 113t-243.5 52q-129 0 -243.5 -49t-199.5 -134t-134.5 -199.5t-49.5 -243.5t49.5 -244 t134.5 -200t199.5 -134t243.5 -49q145 0 244.5 51t158.5 115q70 72 113 166h320q-53 -176 -164 -314q-47 -59 -110.5 -115.5t-145.5 -100.5t-185.5 -70.5t-230.5 -26.5q-190 0 -358 73t-293 197.5t-198 292.5t-73 359z" />
<glyph unicode="D" horiz-adv-x="1638" d="M123 0v1769h590q248 -12 442 -110q82 -41 162 -105.5t142.5 -157.5t100 -219t37.5 -292t-37.5 -292t-100 -219t-142.5 -157.5t-162 -105.5q-195 -98 -442 -111h-590z" />
<glyph unicode="E" horiz-adv-x="1484" d="M115 0v1769h1319v-294h-1024v-443h737v-295h-737v-442h1024v-295h-1319z" />
<glyph unicode="F" horiz-adv-x="1484" d="M115 0v1769h1319v-294h-1024v-443h737v-295h-737v-737h-295z" />
<glyph unicode="G" horiz-adv-x="1843" d="M0 885q0 190 72.5 358t197.5 293t293 197.5t359 72.5q127 0 231 -26.5t190.5 -71.5t153 -101.5t115.5 -113.5q117 -139 182 -313h-319q-51 92 -132 166q-68 61 -172 113t-249 52q-129 0 -244 -49t-200 -134t-134 -199.5t-49 -243.5t49 -244t134 -200t200 -134t244 -49 q92 0 167.5 20.5t135 54.5t105.5 77t81 88q80 104 119 239h-608v295h872v-1032h-295v166q-70 -57 -158 -103q-76 -39 -181 -69.5t-238 -30.5q-190 0 -358.5 73t-293.5 197.5t-197.5 292.5t-72.5 359z" />
<glyph unicode="H" d="M115 0v1769h295v-737h819v737h295v-1769h-295v737h-819v-737h-295z" />
<glyph unicode="I" horiz-adv-x="460" d="M127 0v1769h295v-1769h-295z" />
<glyph unicode="J" horiz-adv-x="1177" d="M0 516h295q4 -74 33 -129q25 -49 77 -89t148 -40t148.5 40t76.5 89q29 55 33 129v1253h295v-1253q-8 -156 -70 -276q-27 -53 -66.5 -102.5t-98 -88.5t-136.5 -62.5t-182 -23.5t-182 23.5t-136.5 62.5t-98.5 88t-66 103q-61 121 -70 276z" />
<glyph unicode="K" horiz-adv-x="1536" d="M115 0v1769h303v-739l672 739h397l-803 -884l840 -885h-406l-635 666l-65 -74v-592h-303z" />
<glyph unicode="L" horiz-adv-x="1280" d="M115 0v1769h295v-1474h819v-295h-1114z" />
<glyph unicode="M" horiz-adv-x="1945" d="M119 0v1769h442l443 -1327l442 1327h442v-1769h-295v1270l-426 -1270h-327l-426 1270v-1270h-295z" />
<glyph unicode="N" horiz-adv-x="1740" d="M115 0v1769h266l987 -1249v1249h295v-1769h-266l-987 1249v-1249h-295z" />
<glyph unicode="O" horiz-adv-x="1945" d="M57 885q0 190 73 358t198 293t292.5 197.5t358.5 72.5q190 0 358 -72.5t293 -197.5t198 -293t73 -358t-73 -358.5t-198 -293t-293 -197.5t-358 -73t-358 73t-293 197.5t-198 293t-73 358.5z" />
<glyph unicode="P" horiz-adv-x="1382" d="M127 0v1769h590q166 -8 295 -73q55 -29 108.5 -71t94 -104.5t66.5 -146.5t26 -194q0 -111 -26 -195t-66.5 -146.5t-94 -105.5t-108.5 -69q-129 -66 -295 -74h-295v-590h-295z" />
<glyph unicode="Q" horiz-adv-x="1945" d="M57 887q0 190 73 358t198 293t292.5 197.5t358.5 72.5q190 0 358 -72.5t293 -197.5t198 -293t73 -358q0 -147 -34 -259t-75 -186q-47 -86 -106 -147l178 -293h-357l-67 86q-57 -35 -127 -61q-61 -23 -145.5 -42.5t-188.5 -19.5q-190 0 -358 73t-293 197.5t-198 292.5 t-73 359z" />
<glyph unicode="R" horiz-adv-x="1382" d="M111 0v1769h589q166 -8 295 -73q55 -29 108.5 -71t94.5 -104.5t66.5 -146.5t25.5 -194v-24q0 -96 -28 -185q-14 -43 -38 -88t-61 -88t-89 -82t-122 -70l486 -643h-369l-442 590h-221v-590h-295z" />
<glyph unicode="S" horiz-adv-x="1433" d="M0 498h295q0 -47 16.5 -83t44 -61.5t61.5 -43t70 -27.5q84 -25 195 -25q109 0 192 25q37 10 72 27.5t62.5 43t44 61.5t16.5 83t-16.5 81.5t-44 61.5t-62.5 44t-72 28q-81 24 -184 24h-8q-121 0 -213 22.5t-160.5 60.5t-115 86t-76.5 98q-70 117 -80 268q10 150 80 266 q31 49 77 97t114.5 86t160.5 61.5t213 23.5t213 -23.5t160.5 -61.5t115 -86t76.5 -97q70 -117 80 -266h-295q0 43 -15.5 76.5t-40 59.5t-56 43t-64.5 30q-78 27 -174 30q-98 -4 -176 -30q-33 -12 -64.5 -29.5t-56.5 -43.5t-39 -59.5t-14 -76.5q0 -45 14 -79t39 -58.5 t56.5 -42t64.5 -29.5q78 -27 176 -31q127 0 224.5 -23.5t169 -61.5t120.5 -86t82 -97q76 -117 86 -266q-10 -152 -86 -269q-33 -49 -82 -97t-120.5 -86t-169 -60.5t-224.5 -22.5q-129 0 -225.5 22.5t-168 60.5t-120.5 86t-82 97q-76 117 -86 269z" />
<glyph unicode="T" horiz-adv-x="1484" d="M102 1475v294h1319v-294h-512v-1475h-295v1475h-512z" />
<glyph unicode="U" d="M111 590v1179h295v-1179q4 -94 49 -166q18 -31 46.5 -61.5t71.5 -53t101.5 -37t136.5 -14.5q102 0 172 23.5t115 59.5t69.5 78t34.5 79t12.5 62.5t2.5 29.5v1179h294v-1187q-10 -174 -88 -310q-33 -59 -84 -114.5t-124.5 -98.5t-173 -69.5t-230.5 -26.5t-231.5 26.5 t-174 70.5t-124 100.5t-82.5 115.5q-78 137 -88 314z" />
<glyph unicode="V" horiz-adv-x="1740" d="M102 1769h332l443 -1237l442 1237h332l-627 -1769h-295z" />
<glyph unicode="W" horiz-adv-x="2816" d="M102 1769h318l426 -1327l426 1327h317l426 -1327l426 1327h316l-584 -1769h-315l-428 1270l-426 -1270h-316z" />
<glyph unicode="X" horiz-adv-x="1740" d="M66 0l645 911l-609 858h361l416 -583l415 583h361l-608 -858l645 -911h-361l-452 637l-453 -637h-360z" />
<glyph unicode="Y" horiz-adv-x="1740" d="M102 1769h361l416 -583l415 583h361l-629 -884v-885h-295v885z" />
<glyph unicode="Z" horiz-adv-x="1382" d="M4 0v266l930 1209h-930v294h1327v-266l-930 -1208h930v-295h-1327z" />
<glyph unicode="a" horiz-adv-x="1536" d="M49 664q0 145 55.5 272t150.5 222t222 150.5t273 55.5q94 0 164.5 -16.5t125 -41t94.5 -54t70 -56.5v131h246v-1327h-246v131q-14 -16 -52 -44t-96.5 -55.5t-135 -48t-170.5 -20.5q-145 0 -272.5 55.5t-222.5 150.5t-150.5 222t-55.5 273z" />
<glyph unicode="b" d="M111 0v1917h245v-721q14 14 51 43t95.5 56.5t136.5 48t172 20.5q145 0 272 -55.5t222.5 -150.5t150.5 -222t55 -272t-55 -272.5t-150.5 -222.5t-222.5 -150.5t-272 -55.5q-94 0 -165 16.5t-125 41t-94 54t-71 56.5v-131h-245z" />
<glyph unicode="c" horiz-adv-x="1484" d="M53 664q0 145 55.5 272t150.5 222t222 150.5t273 55.5q143 0 268 -46t219 -124t148.5 -183.5t54.5 -224.5h-252q0 70 -34 130.5t-93 105.5t-139 70.5t-172 25.5q-94 0 -177 -35.5t-144.5 -97t-97.5 -144.5t-36 -177t36 -177.5t97.5 -144.5t144 -97t177.5 -36 q92 0 172 25.5t139 70.5t93 105.5t34 130.5h252q0 -119 -54.5 -224.5t-148.5 -183.5t-219 -124t-268 -46q-145 0 -272.5 55.5t-222.5 150.5t-150.5 222t-55.5 273z" />
<glyph unicode="d" horiz-adv-x="1536" d="M49 664q0 145 55.5 272t150.5 222t222 150.5t273 55.5q94 0 164.5 -16.5t125 -41t94.5 -54t70 -56.5v721h246v-1917h-246v131q-14 -16 -52 -44t-96.5 -55.5t-135 -48t-170.5 -20.5q-145 0 -272.5 55.5t-222.5 150.5t-150.5 222t-55.5 273z" />
<glyph unicode="e" horiz-adv-x="1484" d="M49 664q0 145 55.5 272t150.5 222t222 150.5t273 55.5q143 0 279 -54.5t236.5 -160t150.5 -259.5q33 -101 33 -220q0 -62 -9 -129h-1129q0 -49 35 -106.5t94.5 -108t138 -84t171.5 -33.5q80 0 149.5 16.5t121.5 45t82 66.5t30 81h272q0 -94 -51 -177t-140.5 -144.5 t-209 -97.5t-254.5 -36q-145 0 -272.5 55.5t-222.5 150.5t-150.5 222t-55.5 273z" />
<glyph unicode="f" horiz-adv-x="819" d="M0 1081v246h246v148q0 100 39 187t105.5 151.5t155.5 102.5t191 38v-246q-51 0 -95 -18.5t-78 -50t-53 -73.5t-19 -91v-148h245v-246h-245v-1081h-246v1081h-246z" />
<glyph unicode="g" horiz-adv-x="1484" d="M41 0h246q0 -94 35.5 -166t97 -119t144.5 -71.5t177 -24.5t177 39t144.5 103.5t97.5 145.5t36 167v57q-27 -27 -65.5 -56.5t-94 -54t-128 -41t-167.5 -16.5q-145 0 -272 55.5t-222 150.5t-150.5 222t-55.5 273q0 145 55.5 272t150.5 222t222 150.5t272 55.5 q94 0 165 -16.5t125 -41t94 -54t71 -56.5v131h246v-1253q0 -125 -55.5 -250t-150.5 -225.5t-222 -163t-273 -62.5q-145 0 -272 43t-222 125t-150.5 198t-55.5 261z" />
<glyph unicode="h" d="M111 0v1917h245v-698q45 39 113 71q57 29 141 51.5t201 22.5q115 0 231.5 -30.5t215 -108.5t167 -214.5t86.5 -346.5v-664h-245v664q-6 127 -58 227q-23 43 -55.5 83t-79.5 72.5t-111.5 52t-150.5 19.5t-150.5 -19.5t-111.5 -52t-81 -72.5t-54 -83q-51 -100 -58 -227 v-664h-245z" />
<glyph unicode="i" horiz-adv-x="460" d="M164 0v1327h246v-1327h-246zM164 1597q0 47 38 85t85 38t85 -37.5t38 -85.5q0 -47 -38 -84.5t-85 -37.5t-85 37.5t-38 84.5z" />
<glyph unicode="j" horiz-adv-x="665" d="M0 -381q76 0 143.5 29.5t117.5 82t79 121t29 148.5v1327h245v-1327q0 -129 -48 -243.5t-131 -199.5t-195.5 -134.5t-239.5 -49.5v246zM369 1597q0 47 37.5 85t85.5 38q47 0 84.5 -37.5t37.5 -85.5q0 -47 -37.5 -84.5t-84.5 -37.5t-85 37.5t-38 84.5z" />
<glyph unicode="k" horiz-adv-x="1177" d="M111 0v1917h245v-1108l469 518h332l-602 -663l631 -664h-338l-459 481l-33 -37v-444h-245z" />
<glyph unicode="l" horiz-adv-x="409" d="M115 0v1917h245v-1917h-245z" />
<glyph unicode="m" horiz-adv-x="2713" d="M115 0v1327h245v-110q53 43 121 75q59 30 143 52q77 21 174 20h17q14 1 28 1q95 0 187 -24q90 -23 189.5 -84t173.5 -180q41 80 118 144q66 53 177.5 98t281.5 45t301 -57.5t220 -153.5t134.5 -223t45.5 -266v-664h-246v664q-6 127 -58 227q-23 43 -55.5 83t-79.5 72.5 t-111.5 52t-150.5 19.5t-150.5 -19.5t-111.5 -52t-81 -72.5t-54 -83q-51 -100 -57 -227v-664h-246v664q-6 127 -58 227q-23 43 -55.5 83t-79.5 72.5t-111.5 52t-150.5 19.5t-150.5 -19.5t-111.5 -52t-81 -72.5t-54 -83q-51 -100 -58 -227v-664h-245z" />
<glyph unicode="n" d="M111 0v1327h245v-110q45 41 113 73q57 29 141 51.5t201 22.5q115 0 231.5 -30.5t215 -108.5t167 -214.5t86.5 -346.5v-664h-245v664q-6 127 -58 227q-23 43 -55.5 83t-79.5 72.5t-111.5 52t-150.5 19.5t-150.5 -19.5t-111.5 -52t-81 -72.5t-54 -83q-51 -100 -58 -227 v-664h-245z" />
<glyph unicode="o" horiz-adv-x="1536" d="M49 664q0 145 55.5 272t150.5 222t222 150.5t273 55.5q145 0 272 -56.5t222 -152.5t150.5 -223t55.5 -268q0 -145 -55.5 -272.5t-150.5 -222.5t-222 -150.5t-272 -55.5t-272.5 55.5t-222.5 150.5t-150.5 222.5t-55.5 272.5z" />
<glyph unicode="p" d="M111 -590v1917h245v-131q14 14 51 43t95.5 56.5t136.5 48t172 20.5q145 0 272 -55.5t222.5 -150.5t150.5 -222t55 -272t-55 -272.5t-150.5 -222.5t-222.5 -150.5t-272 -55.5q-94 0 -165 16.5t-125 41t-94 54t-71 56.5v-721h-245z" />
<glyph unicode="q" horiz-adv-x="1536" d="M49 664q0 145 55.5 272t150.5 222t222 150.5t273 55.5q94 0 164.5 -16.5t125 -41t94.5 -54t70 -56.5v131h246v-1917h-246v721q-14 -16 -52 -44t-96.5 -55.5t-135 -48t-170.5 -20.5q-145 0 -272.5 55.5t-222.5 150.5t-150.5 222t-55.5 273z" />
<glyph unicode="r" horiz-adv-x="870" d="M115 0v1327h245v-110q45 41 113 73q57 29 142 51.5t200 22.5v-246q-121 0 -219 -49q-41 -20 -82 -53t-72.5 -82t-54 -115.5t-27.5 -154.5v-664h-245z" />
<glyph unicode="s" horiz-adv-x="1126" d="M37 369h246q0 -59 42 -91t93 -49q59 -18 137 -20q76 2 135 20q51 16 94 48t43 92q0 63 -43 98t-94 51q-59 18 -135 23q-92 0 -161.5 18.5t-121 47t-87 66.5t-58.5 77q-53 92 -61 208q8 113 61 203q23 37 58.5 74t87 65.5t121 46t161.5 17.5t161.5 -17.5t121 -46 t87.5 -65.5t58 -74q53 -90 61 -203h-245q0 59 -38 91t-85 49q-53 18 -121 20q-70 -2 -123 -20q-47 -16 -84 -48t-37 -92q0 -66 37 -100.5t84 -50.5q53 -20 123 -21q96 0 170 -18t128 -47t92 -67t63 -76q57 -92 65 -209q-8 -115 -65 -203q-25 -39 -63 -75t-92 -64.5t-128 -46 t-170 -17.5q-98 0 -172 17.5t-128 46t-91 64.5t-62 75q-57 88 -65 203z" />
<glyph unicode="t" horiz-adv-x="819" d="M0 1081v246h246v295h246v-295h245v-246h-245v-1081h-246v1081h-246z" />
<glyph unicode="u" d="M106 664v663h246v-663q6 -129 58 -228q20 -43 54 -84t81 -72.5t111.5 -51t150.5 -19.5t150.5 19.5t111.5 51t80 72.5t55 84q51 98 58 228v663h245v-1327h-245v111q-45 -41 -113 -74q-57 -29 -142 -51.5t-200 -22.5t-231.5 31t-215 108.5t-167 214t-87.5 347.5z" />
<glyph unicode="v" horiz-adv-x="1177" d="M0 1327h258l322 -924l321 924h260l-442 -1327h-279z" />
<glyph unicode="w" horiz-adv-x="2048" d="M0 1327h258l299 -924l303 924h268l306 -924l319 924h260l-446 -1327h-269l-303 924l-303 -924h-274z" />
<glyph unicode="x" horiz-adv-x="1177" d="M-27 0l459 684l-432 643h303l281 -418l280 418h301l-432 -643l459 -684h-301l-307 461l-310 -461h-301z" />
<glyph unicode="y" horiz-adv-x="1177" d="M0 1327h258l322 -924l321 924h260l-641 -1917h-284l204 590z" />
<glyph unicode="z" horiz-adv-x="1075" d="M27 0v205l659 876h-659v246h995v-205l-649 -876h649v-246h-995z" />
<glyph unicode="&#x2000;" horiz-adv-x="977" />
<glyph unicode="&#x2001;" horiz-adv-x="1954" />
<glyph unicode="&#x2002;" horiz-adv-x="977" />
<glyph unicode="&#x2003;" horiz-adv-x="1954" />
<glyph unicode="&#x2004;" horiz-adv-x="651" />
<glyph unicode="&#x2005;" horiz-adv-x="488" />
<glyph unicode="&#x2006;" horiz-adv-x="325" />
<glyph unicode="&#x2007;" horiz-adv-x="325" />
<glyph unicode="&#x2008;" horiz-adv-x="244" />
<glyph unicode="&#x2009;" horiz-adv-x="390" />
<glyph unicode="&#x200a;" horiz-adv-x="108" />
<glyph unicode="&#x202f;" horiz-adv-x="390" />
<glyph unicode="&#x205f;" horiz-adv-x="488" />
<glyph unicode="&#x25fc;" horiz-adv-x="1331" d="M0 0v1331h1331v-1331h-1331z" />
</font>
</defs>
</svg>
